<svg xmlns="http://www.w3.org/2000/svg" width="24" height="24"><path d="m11.89 14.778-3.267.007a.11.11 0 0 0-.102.076l-.25.722c-.022.076.03.152.103.152h1.27c.095 0 .146.122.08.19L7.7 18.105h.007l1.042 3.397c.022.076-.03.144-.103.144h-1.02a.104.104 0 0 1-.102-.076L7 19.83c-.029-.106-.168-.106-.205-.007l-.426 1.223a.109.109 0 0 0 0 .069l.39 1.481c.014.046.058.084.102.084h3.288c.073 0 .125-.076.103-.145l-1.329-4.277c-.014-.038 0-.084.03-.114l3.016-3.176c.066-.069.015-.19-.08-.19Z"/><path fill="#D8141C" d="m8.022 13-1.99.008a.11.11 0 0 0-.102.076l-.257.721c-.03.076.03.152.103.152h.836c.074 0 .125.076.103.152l-2.37 6.717a.108.108 0 0 1-.206 0l-1.703-4.848a.112.112 0 0 1 .103-.152h.859a.11.11 0 0 1 .103.076l.616 1.748a.108.108 0 0 0 .206 0l.954-2.72a.112.112 0 0 0-.103-.152H1.108c-.074 0-.125.076-.103.152l3.127 8.996a.108.108 0 0 0 .205 0l3.787-10.774c.022-.076-.029-.152-.102-.152Z"/><path d="M1 0a1 1 0 0 0-1 1v12.712a1.542 1.542 0 0 1 1.108-.434H1.5V1.5h21v15h-9.916L11.159 18H23a1 1 0 0 0 1-1V1a1 1 0 0 0-1-1H1ZM.42 17.814 0 16.607V17c0 .336.166.633.42.814Z"/><path d="m9.225 12.037.189-.188-2.926-2.926L9.35 6.06l-.997-.997L5.41 8.006a1.376 1.376 0 0 0 0 1.962l1.536 1.536 1.075-.004c.528 0 .933.219 1.203.537ZM19.083 7.942 16.14 5 15.08 6.061l2.894 2.894-2.894 2.894 1.06 1.06 2.949-2.947.005-.006c.527-.602.543-1.46-.011-2.014ZM12.918 6.405A.94.94 0 0 0 13 6.013a.94.94 0 0 0-.082-.392 1.039 1.039 0 0 0-.544-.543.976.976 0 0 0-1.082.218 1.002 1.002 0 0 0-.292.718c0 .14.025.27.076.391.055.121.127.228.216.32a.948.948 0 0 0 .69.296c.14 0 .271-.026.392-.079a1.06 1.06 0 0 0 .544-.537ZM12.792 8v5H11.3V8h1.492Z"/></svg>