<svg width="24" height="24" xmlns="http://www.w3.org/2000/svg"><path d="M10.89 14.78H7.62a.11.11 0 00-.1.08l-.25.72c-.02.08.03.16.1.16h1.27c.1 0 .15.12.08.19L6.7 18.1l1.05 3.4c.02.07-.03.14-.1.14H6.63a.1.1 0 01-.1-.08L6 19.83c-.03-.1-.17-.1-.2 0l-.43 1.22a.1.1 0 000 .06l.39 1.49c.01.04.06.08.1.08h3.29c.07 0 .12-.08.1-.14l-1.33-4.28c-.01-.04 0-.09.03-.12l3.02-3.17c.07-.07.01-.2-.08-.2z"/><path d="M7.02 13H5.03a.11.11 0 00-.1.08l-.26.73c-.03.07.03.15.1.15h.84c.08 0 .13.07.1.15l-2.37 6.72a.1.1 0 01-.2 0l-1.7-4.85a.11.11 0 01.1-.15h.86c.04 0 .09.03.1.07l.62 1.75c.03.1.17.1.2 0l.96-2.72a.11.11 0 00-.1-.15H.1c-.08 0-.13.07-.1.15l3.12 9c.04.1.17.1.2 0l3.8-10.78c.02-.07-.03-.15-.1-.15z" fill="#D8141C"/><path fill-rule="evenodd" clip-rule="evenodd" d="M10.63 17.5L9.6 18.59l.13.41H23a1 1 0 001-1V1a1 1 0 00-1-1H1a1 1 0 00-1 1v12.28h1.5V1.5h21v16H10.63zm-4.76-6h-.84c-.25 0-.49.07-.7.17L2.5 9.35 5.15 6l1.02.83-2 2.52 1.7 2.15zM8.62 13a1.7 1.7 0 00-.43-1H16v1H8.62zm10.4-.3l2.65-3.35L19.02 6 18 6.83l2 2.52-2 2.53 1.02.83zM8 9h8v1H8V9zm0-3h8v1H8V6z"/></svg>