<svg width="24" height="24" xmlns="http://www.w3.org/2000/svg"><path d="M10.89 14.78H7.62a.11.11 0 00-.1.08l-.25.72c-.02.08.03.16.1.16h1.27c.1 0 .15.12.08.19L6.7 18.1l1.05 3.4c.02.07-.03.14-.1.14H6.63a.1.1 0 01-.1-.08L6 19.83c-.03-.1-.17-.1-.2 0l-.43 1.22a.1.1 0 000 .06l.39 1.49c.01.04.06.08.1.08h3.29c.07 0 .12-.08.1-.14l-1.33-4.28c-.01-.04 0-.09.03-.12l3.02-3.17c.07-.07.01-.2-.08-.2z"/><path d="M7.02 13H5.03a.11.11 0 00-.1.08l-.26.73c-.03.07.03.15.1.15h.84c.08 0 .13.07.1.15l-2.37 6.72a.1.1 0 01-.2 0l-1.7-4.85a.11.11 0 01.1-.15h.86c.04 0 .09.03.1.07l.62 1.75c.03.1.17.1.2 0l.96-2.72a.11.11 0 00-.1-.15H.1c-.08 0-.13.07-.1.15l3.12 9c.04.1.17.1.2 0l3.8-10.78c.02-.07-.03-.15-.1-.15z" fill="#D8141C"/><path d="M5.07 0C3.57 0 2.35.49 1.4 1.47A5.2 5.2 0 000 5.24c0 1.54.48 2.81 1.43 3.79a4.87 4.87 0 003.64 1.44c1 0 1.85-.2 2.36-.53l1.35 1.39 1.38-1.38-1.19-1.21c.73-.9 1.17-2.1 1.17-3.5A4.9 4.9 0 005.07 0zM3.08 5.24c0-1.63.73-2.75 1.97-2.75 1.12 0 2 .9 2 2.75 0 .51-.06.93-.19 1.33l-.84-.86-1.39 1.35.84.86c-.14.05-.26.06-.4.06-1.16 0-1.99-.95-1.99-2.74zM13.52 7c-.91 0-1.69.64-1.69 1.55 0 .45.14.86.62 1.45-.96.47-1.45 1.17-1.45 1.96 0 1.25.89 2.04 2.09 2.04.73 0 1.3-.28 1.81-.8l.53.67H17l-1.31-1.61c.32-.43.55-.98.62-1.67h-1.1c-.04.3-.13.59-.24.8l-.83-1.07c.75-.43 1.14-.99 1.14-1.7 0-1.07-.81-1.62-1.76-1.62zM13 8.5c0-.36.27-.6.57-.6.33 0 .6.3.6.65 0 .42-.2.68-.67.97-.41-.5-.5-.73-.5-1.02zm-.78 3.5c0-.48.33-.87.9-1.13l1.1 1.42c-.36.44-.7.6-1.08.6a.93.93 0 01-.92-.9zM17.56 14L14 24h2.98l.45-1.43h3.07l.41 1.43H24l-3.52-10h-2.92zm1.45 3.35h.03l.87 3.08h-1.83l.93-3.08z"/></svg>