<svg width="24" height="24" xmlns="http://www.w3.org/2000/svg"><path d="M10.89 14.78H7.62a.11.11 0 00-.1.08l-.25.72c-.02.08.03.16.1.16h1.27c.1 0 .15.12.08.19L6.7 18.1l1.05 3.4c.02.07-.03.14-.1.14H6.63a.1.1 0 01-.1-.08L6 19.83c-.03-.1-.17-.1-.2 0l-.43 1.22a.1.1 0 000 .06l.39 1.49c.01.04.06.08.1.08h3.29c.07 0 .12-.08.1-.14l-1.33-4.28c-.01-.04 0-.09.03-.12l3.02-3.17c.07-.07.01-.2-.08-.2z"/><path d="M7.02 13H5.03a.11.11 0 00-.1.08l-.26.73c-.03.07.03.15.1.15h.84c.08 0 .13.07.1.15l-2.37 6.72a.1.1 0 01-.2 0l-1.7-4.85a.11.11 0 01.1-.15h.86c.04 0 .09.03.1.07l.62 1.75c.03.1.17.1.2 0l.96-2.72a.11.11 0 00-.1-.15H.1c-.08 0-.13.07-.1.15l3.12 9c.04.1.17.1.2 0l3.8-10.78c.02-.07-.03-.15-.1-.15z" fill="#D8141C"/><path d="M16.98 0c-2.06 0-3.74.7-5.03 2.08A7.44 7.44 0 0010 7.4a7.5 7.5 0 001.97 5.36 6.62 6.62 0 005.01 2.03c1.37 0 2.55-.3 3.26-.75L22.09 16 24 14.06l-1.64-1.72c1-1.26 1.6-2.97 1.6-4.94 0-2.18-.65-3.98-1.95-5.34A6.67 6.67 0 0016.98 0zm-2.74 7.4c0-2.3 1-3.88 2.72-3.88 1.54 0 2.76 1.27 2.76 3.88 0 .73-.1 1.32-.27 1.88l-1.16-1.21-1.9 1.9 1.15 1.22c-.2.06-.37.08-.56.08-1.6 0-2.74-1.34-2.74-3.87z"/></svg>