<svg xmlns="http://www.w3.org/2000/svg" width="24" height="24" fill="none"><path d="m11.89 14.778-3.267.008a.11.11 0 0 0-.102.075l-.25.722c-.022.076.03.152.103.152h1.27c.095 0 .146.122.08.19L7.7 18.105h.007l1.042 3.397c.022.076-.03.145-.103.145h-1.02a.104.104 0 0 1-.102-.076L7 19.83c-.029-.107-.168-.107-.205-.008l-.426 1.223a.109.109 0 0 0 0 .069l.39 1.481c.014.046.058.084.102.084h3.288c.073 0 .125-.076.103-.145l-1.329-4.277c-.014-.038 0-.084.03-.114l3.016-3.176c.066-.069.015-.19-.08-.19Z"/><path fill="#D8141C" d="m8.022 13-1.99.008a.11.11 0 0 0-.102.076l-.257.721c-.03.076.03.152.103.152h.836c.074 0 .125.076.103.152l-2.37 6.717a.108.108 0 0 1-.206 0l-1.703-4.848a.112.112 0 0 1 .103-.152h.859a.11.11 0 0 1 .103.076l.616 1.748a.108.108 0 0 0 .206 0l.954-2.72a.112.112 0 0 0-.103-.152H1.108c-.074 0-.125.076-.103.152l3.127 8.996a.108.108 0 0 0 .205 0l3.787-10.774c.022-.076-.029-.152-.102-.152Z"/><path d="M15.5 0A8.5 8.5 0 0 0 7 8.5c0 1.03.18 2.04.54 3h.48c1.1 0 1.67.95 1.6 1.78h2.27c1.42 0 2.14 1.7 1.16 2.72l-.46.49a8.5 8.5 0 0 0 11.4-7.99C24 3.81 20.2 0 15.5 0Zm-.93 4.09c.15-.14.34-.23.55-.23h.39c.43.02.76.37.74.8-.01.41-.34.73-.74.74h-.39a.77.77 0 0 1-.54-1.32l-.01.01Zm2.48 8.27h-3.09a.77.77 0 0 1 0-1.54h.77V8.5h-.77a.77.77 0 1 1 .01-1.54h1.55c.43 0 .77.35.77.77v3.09h.77a.77.77 0 0 1 0 1.54h-.01Z"/></svg>