<svg xmlns="http://www.w3.org/2000/svg" width="24" height="24" fill="none"><path d="m10.89 14.778-3.267.008a.11.11 0 0 0-.102.075l-.25.722c-.022.076.03.152.103.152h1.27c.095 0 .146.122.08.19L6.7 18.105h.007l1.042 3.397c.022.076-.03.145-.103.145h-1.02a.104.104 0 0 1-.102-.076L6 19.83c-.029-.107-.168-.107-.205-.008l-.426 1.223a.109.109 0 0 0 0 .069l.39 1.481c.014.046.058.084.102.084H9.15c.073 0 .125-.076.103-.145l-1.329-4.277c-.014-.038 0-.084.03-.114l3.016-3.176c.066-.069.015-.19-.08-.19Z"/><path fill="#D8141C" d="m7.022 13-1.99.008a.11.11 0 0 0-.102.076l-.257.721c-.03.076.03.152.103.152h.836c.074 0 .125.076.103.152l-2.37 6.717a.108.108 0 0 1-.206 0l-1.703-4.848a.112.112 0 0 1 .103-.152h.859a.11.11 0 0 1 .103.076l.616 1.748a.108.108 0 0 0 .206 0l.954-2.72a.112.112 0 0 0-.103-.152H.108c-.073 0-.125.076-.103.152l3.127 8.996a.108.108 0 0 0 .205 0l3.787-10.774c.022-.076-.029-.152-.102-.152Z"/><path fill-rule="evenodd" d="M23.28 14.183 16.004.644a1.22 1.22 0 0 0-.445-.47A1.163 1.163 0 0 0 14.942 0c-.221 0-.426.058-.616.173a1.22 1.22 0 0 0-.445.471L8 11.584c.749.251 1.12 1.02 1.06 1.7l2.271-.006c1.416 0 2.14 1.701 1.17 2.722h9.719c.214 0 .415-.055.601-.164.187-.108.333-.256.44-.442.235-.404.24-.808.02-1.211Zm-7.125-2.789v1.827a.31.31 0 0 1-.09.226.29.29 0 0 1-.213.092h-1.82a.29.29 0 0 1-.213-.092.31.31 0 0 1-.09-.226v-1.827c0-.09.03-.165.09-.226a.29.29 0 0 1 .213-.091h1.82a.29.29 0 0 1 .213.091c.06.061.09.137.09.226Zm.151-6.182-.17 4.413a.214.214 0 0 1-.1.159.381.381 0 0 1-.222.062H14.06a.404.404 0 0 1-.228-.062c-.063-.042-.094-.095-.094-.159l-.162-4.394c0-.09.032-.157.095-.202.082-.07.158-.106.228-.106h2.084c.07 0 .146.035.228.106a.213.213 0 0 1 .095.183Z" clip-rule="evenodd"/></svg>