<svg xmlns="http://www.w3.org/2000/svg" width="24" height="24" fill="none"><path d="m11.525 15-3.266.008a.11.11 0 0 0-.103.076l-.25.721c-.022.076.03.152.103.152h1.27c.095 0 .147.122.08.19l-2.025 2.18h.007l1.042 3.397c.023.076-.029.145-.102.145H7.26a.104.104 0 0 1-.103-.076l-.521-1.74c-.03-.107-.17-.107-.206-.008l-.426 1.223a.11.11 0 0 0 0 .069l.39 1.481c.014.046.058.084.102.084h3.288c.074 0 .125-.076.103-.144L8.56 18.48c-.015-.038 0-.084.029-.114l3.016-3.176c.066-.068.015-.19-.08-.19Z"/><path fill="#D8141C" d="m8.022 13-1.99.008a.11.11 0 0 0-.102.076l-.257.721c-.03.076.03.152.103.152h.836c.074 0 .125.076.103.152l-2.37 6.717a.108.108 0 0 1-.206 0l-1.703-4.848a.112.112 0 0 1 .103-.152h.859a.11.11 0 0 1 .103.076l.616 1.748a.108.108 0 0 0 .206 0l.954-2.72a.112.112 0 0 0-.103-.152H1.108c-.074 0-.125.076-.103.152l3.127 8.996a.108.108 0 0 0 .205 0l3.787-10.774c.022-.076-.029-.152-.102-.152Z"/><path d="M23.35 5.25a8.558 8.558 0 0 0-1.84-2.76A8.4 8.4 0 0 0 18.75.65 8.455 8.455 0 0 0 15.5 0c-2.25 0-4.42.9-6.01 2.49A8.517 8.517 0 0 0 7 8.5c0 1.04.19 2.05.55 3h.47c1.1 0 1.67.95 1.6 1.78h2.27c1.42 0 2.14 1.7 1.17 2.72l-.46.48c.92.34 1.9.51 2.91.51a8.558 8.558 0 0 0 6.01-2.49 8.4 8.4 0 0 0 1.84-2.76 8.455 8.455 0 0 0 0-6.5l-.01.01Zm-8.73 7.48-3.56-3.56 1.34-1.34 2.1 2.1 4.06-4.87 1.45 1.21-5.38 6.46h-.01Z"/></svg>