<svg width="24" height="24" xmlns="http://www.w3.org/2000/svg"><path d="M10.89 14.78H7.62a.11.11 0 00-.1.08l-.25.72c-.02.08.03.16.1.16h1.27c.1 0 .15.12.08.19L6.7 18.1l1.05 3.4c.02.07-.03.14-.1.14H6.63a.1.1 0 01-.1-.08L6 19.83c-.03-.1-.17-.1-.2 0l-.43 1.22a.1.1 0 000 .06l.39 1.49c.01.04.06.08.1.08h3.29c.07 0 .12-.08.1-.14l-1.33-4.28c-.01-.04 0-.09.03-.12l3.02-3.17c.07-.07.01-.2-.08-.2z"/><path d="M7.02 13H5.03a.11.11 0 00-.1.08l-.26.73c-.03.07.03.15.1.15h.84c.08 0 .13.07.1.15l-2.37 6.72a.1.1 0 01-.2 0l-1.7-4.85a.11.11 0 01.1-.15h.86c.04 0 .09.03.1.07l.62 1.75c.03.1.17.1.2 0l.96-2.72a.11.11 0 00-.1-.15H.1c-.08 0-.13.07-.1.15l3.12 9c.04.1.17.1.2 0l3.8-10.78c.02-.07-.03-.15-.1-.15z" fill="#D8141C"/><path fill-rule="evenodd" clip-rule="evenodd" d="M24 8.5a8.5 8.5 0 01-12.12 7.7l.18-.2a1.61 1.61 0 00-1.17-2.72H8.62c.06-.67-.3-1.43-1.04-1.69A8.5 8.5 0 1124 8.5zm-7.86.7H14.9L14 6.27V4H17v2.28l-.86 2.91zm.86 1.29V13h-3v-2.51h3z"/></svg>