<svg xmlns="http://www.w3.org/2000/svg" width="24" height="24"><path fill-rule="evenodd" d="M17 5.5H7a.5.5 0 0 0-.5.5v5.502l-1.467.006H5V6a2 2 0 0 1 2-2h10a2 2 0 0 1 2 2v12a2 2 0 0 1-2 2h-6.964l-.438-1.41.086-.09H17a.5.5 0 0 0 .5-.5V6a.5.5 0 0 0-.5-.5Zm-4.745 10.25H14v-1.5h-1.634c.203.468.191 1.028-.11 1.5ZM8.502 12.5H16V11H8v.821c.23.179.398.418.502.679ZM8 7.75h8v1.5H8v-1.5Z" clip-rule="evenodd"/><path d="m10.89 14.778-3.267.007a.11.11 0 0 0-.102.076l-.25.722c-.022.076.03.152.103.152h1.27c.095 0 .146.122.08.19L6.7 18.105h.007l1.042 3.397c.022.076-.03.144-.103.144h-1.02a.104.104 0 0 1-.102-.076L6 19.83c-.029-.106-.168-.106-.205-.007l-.426 1.223a.109.109 0 0 0 0 .069l.39 1.481c.014.046.058.084.102.084H9.15c.073 0 .125-.076.103-.145l-1.329-4.277c-.014-.038 0-.084.03-.114l3.016-3.176c.066-.069.015-.19-.08-.19Z"/><path fill="#D8141C" d="m7.022 13-1.99.008a.11.11 0 0 0-.102.076l-.257.721c-.03.076.03.152.103.152h.836c.074 0 .125.076.103.152l-2.37 6.717a.108.108 0 0 1-.206 0l-1.703-4.848a.112.112 0 0 1 .103-.152h.859a.11.11 0 0 1 .103.076l.616 1.748a.108.108 0 0 0 .206 0l.954-2.72a.112.112 0 0 0-.103-.152H.108c-.073 0-.125.076-.103.152l3.127 8.996a.108.108 0 0 0 .205 0l3.787-10.774c.022-.076-.029-.152-.102-.152Z"/></svg>
