<svg xmlns="http://www.w3.org/2000/svg" width="24" height="24"><path d="M10.9 14.8H7.6a.1.1 0 0 0-.1.1l-.2.7c0 .1 0 .2.1.2h1.3c.1 0 .1.1.1.2l-2 2.2 1 3.4c0 .1 0 .1-.1.1h-1c-.1 0-.1 0-.1-.1L6 19.8c0-.1-.2-.1-.2 0L5.4 21v.1l.4 1.5.1.1h3.3a.1.1 0 0 0 .1-.1L8 18.3v-.1l3-3.2c0-.1 0-.2-.1-.2Z"/><path fill="#D8141C" d="M7 13H5a.1.1 0 0 0-.1.1l-.3.7c0 .1 0 .2.1.2h.8c.1 0 .1.1.1.2l-2.4 6.7c0 .1-.2.1-.2 0L1.4 16c0-.1 0-.2.1-.2h.9a.1.1 0 0 1 .1.1l.6 1.7c0 .1.2.1.2 0l1-2.7c0-.1 0-.2-.1-.2H.1a.31.31 0 0 0-.1.2l3.1 9c0 .1.2.1.2 0l3.8-10.8A.1.1 0 0 0 7 13Z"/><path d="M15.5 0a8.5 8.5 0 0 0-7.92 11.59 1.64 1.64 0 0 1 1 1.69h2.27A1.61 1.61 0 0 1 12.06 16l-.18.19A8.5 8.5 0 1 0 15.5 0Zm1.7 13.6h-3.4V6.8h3.4v6.8Zm0-8.3h-3.4V3.4h3.4v1.9Z"/></svg>
