<svg width="24" height="24" xmlns="http://www.w3.org/2000/svg"><path d="M12 3H1v9.5h2.55a1.6 1.6 0 00-.04.09l-.24.69H0V2h13v11.5h-1.29a1.6 1.6 0 00-.82-.22H8.62c.02-.26-.02-.53-.12-.78H12V3zM15 4.5h9v1h-9v-1zM24 7h-9v1h9V7zM24 2h-9v1h9V2zM17.5 11h4v1h-4v-1z"/><path fill-rule="evenodd" clip-rule="evenodd" d="M15 10.7c0-.32.13-.62.37-.85.23-.22.55-.35.88-.35h6.5c.33 0 .65.13.88.35.24.23.37.53.37.85v1.6c0 .32-.13.62-.37.85-.23.22-.55.35-.88.35h-6.5c-.33 0-.65-.13-.88-.35a1.18 1.18 0 01-.37-.85v-1.6zm1.25-.4a.43.43 0 00-.3.12.4.4 0 00-.12.28v1.6a.43.43 0 00.42.4h6.5c.11 0 .22-.04.3-.12a.4.4 0 00.12-.28v-1.6a.4.4 0 00-.13-.28.43.43 0 00-.29-.12h-6.5z"/><path d="M5.62 6a1 1 0 01-1 .99 1 1 0 01-1-1 1 1 0 012 0zM11.1 10.83H2.15c-.42 0-.67-.52-.43-.9l1.44-2.2a.5.5 0 01.85 0l.95 1.43c.2.3.6.33.82.04l2.2-2.8a.5.5 0 01.79 0l2.73 3.5c.29.36.05.93-.4.93zM10.89 14.78H7.62a.11.11 0 00-.1.08l-.25.72c-.02.08.03.16.1.16h1.27c.1 0 .15.12.08.19L6.7 18.1l1.05 3.4c.02.07-.03.14-.1.14H6.63a.1.1 0 01-.1-.08L6 19.83c-.03-.1-.17-.1-.2 0l-.43 1.22a.1.1 0 000 .06l.39 1.49c.01.04.06.08.1.08h3.29c.07 0 .12-.08.1-.14l-1.33-4.28c-.01-.04 0-.09.03-.12l3.02-3.17c.07-.07.01-.2-.08-.2z"/><path d="M7.02 13H5.03a.11.11 0 00-.1.08l-.26.73c-.03.07.03.15.1.15h.84c.08 0 .13.07.1.15l-2.37 6.72a.1.1 0 01-.2 0l-1.7-4.85a.11.11 0 01.1-.15h.86c.04 0 .09.03.1.07l.62 1.75c.03.1.17.1.2 0l.96-2.72a.11.11 0 00-.1-.15H.1c-.08 0-.13.07-.1.15l3.12 9c.04.1.17.1.2 0l3.8-10.78c.02-.07-.03-.15-.1-.15z" fill="#D8141C"/></svg>