<svg viewBox="0 0 24 24" xmlns="http://www.w3.org/2000/svg" width="24" height="24">
<path d="M20 4.80426C19.999 4.36063 19.5648 4.00089 19.0287 4.00037L12.5801 4C12.3935 3.99986 12.2197 4.04328 12.072 4.11847C11.7946 4.25974 11.6093 4.51342 11.6093 4.8032L11.6097 12.4995L20 12.5V4.80426Z" />
<path d="M19.9554 15.3193C19.9554 15.3193 19.9556 14.6114 19.9555 13.7598L12.0397 13.7591C12.544 14.2811 12.6794 15.1283 12.2301 15.788C12.9911 16.4125 14.1331 17.6568 14.1325 19.5L17.3864 19.501C17.3858 16.7364 19.9554 15.3193 19.9554 15.3193Z" />
<path d="M17.0975 22.0152L14.6951 23.0553L14.5976 20.5L17.0976 20.5L17.0975 22.0152Z" />
<path d="M10.8895 14.778L7.62346 14.7856C7.57942 14.7856 7.53538 14.8159 7.5207 14.8615L7.27116 15.5833C7.24915 15.6593 7.30052 15.7353 7.37392 15.7353H8.64364C8.73905 15.7353 8.79043 15.8569 8.72437 15.9253L6.69869 18.1059H6.70603L7.74823 21.5022C7.77025 21.5782 7.71887 21.6465 7.64548 21.6465H6.62529C6.57392 21.6465 6.53722 21.6162 6.52254 21.5706L6.00144 19.8306C5.97208 19.7242 5.83264 19.7242 5.79594 19.823L5.37025 21.0463C5.36291 21.0691 5.36291 21.0919 5.37025 21.1147L5.75924 22.5963C5.77392 22.6419 5.81796 22.6799 5.86199 22.6799H9.15006C9.22345 22.6799 9.27483 22.6039 9.25281 22.5355L7.92437 18.2578C7.90969 18.2198 7.92437 18.1743 7.95373 18.1439L10.9702 14.9679C11.0363 14.8995 10.9849 14.778 10.8895 14.778Z" />
<path d="M7.02164 13L5.03265 13.0076C4.98862 13.0076 4.94458 13.038 4.9299 13.0836L4.67302 13.8054C4.64366 13.8814 4.70238 13.9573 4.77577 13.9573H5.61247C5.68586 13.9573 5.73724 14.0333 5.71522 14.1093L3.34458 20.8259C3.30789 20.9247 3.17578 20.9247 3.13908 20.8259L1.43633 15.9784C1.40697 15.9024 1.46569 15.8265 1.53908 15.8265H2.3978C2.44183 15.8265 2.48587 15.8568 2.50055 15.9024L3.11706 17.65C3.15376 17.7487 3.28587 17.7487 3.32257 17.65L4.27669 14.9299C4.30605 14.8539 4.24733 14.7779 4.17394 14.7779H0.107895C0.0345005 14.7779 -0.0168755 14.8539 0.0051428 14.9299L3.13174 23.9259C3.16844 24.0247 3.30055 24.0247 3.33724 23.9259L7.12439 13.152C7.14641 13.076 7.09503 13 7.02164 13Z" fill="#D8141C"/>
</svg>
