<?xml version="1.0" encoding="utf-8"?>
<!-- Generator: Adobe Illustrator 21.1.0, SVG Export Plug-In . SVG Version: 6.00 Build 0)  -->
<svg version="1.1" id="レイヤー_1" xmlns="http://www.w3.org/2000/svg" xmlns:xlink="http://www.w3.org/1999/xlink" x="0px"
	 y="0px" viewBox="0 0 259.8 260" style="enable-background:new 0 0 259.8 260;" xml:space="preserve">
<style type="text/css">
	.st0{fill:#E2E2E2;}
	.st1{fill:#C1C1C1;}
	.st2{fill:#FFFFFF;}
	.st3{fill:#878787;}
	.st4{fill:#E07170;}
	.st5{clip-path:url(#SVGID_2_);fill:#E07170;}
</style>
<rect y="0" class="st0" width="259.8" height="260"/>
<rect x="17.3" y="29.4" class="st1" width="225.2" height="93.5"/>
<rect x="17.3" y="26.4" class="st2" width="225.2" height="94"/>
<rect x="28.5" y="36.5" class="st0" width="202.8" height="61"/>
<polygon class="st3" points="129.9,113.6 135.8,103.4 124,103.4 "/>
<rect x="37.4" y="46.9" class="st3" width="126" height="9.9"/>
<rect x="37.4" y="62.7" class="st3" width="126" height="9.9"/>
<rect x="37.4" y="78.6" class="st3" width="126" height="9.9"/>
<g>
	<rect x="17.3" y="144.4" class="st1" width="225.2" height="93.5"/>
	<rect x="17.3" y="141.4" class="st2" width="225.2" height="94"/>
	<rect x="116.1" y="151.6" class="st0" width="115.2" height="73.5"/>
	<g>
		<circle class="st4" cx="61.4" cy="179.6" r="31"/>
		<g>
			<g>
				<defs>
					<rect id="SVGID_1_" x="25" y="196.7" width="72.7" height="28.4"/>
				</defs>
				<clipPath id="SVGID_2_">
					<use xlink:href="#SVGID_1_"  style="overflow:visible;"/>
				</clipPath>
				<path class="st5" d="M97.7,238.4H25c0-20.1,16.3-36.3,36.3-36.3S97.7,218.4,97.7,238.4z"/>
			</g>
		</g>
	</g>
	<polygon class="st0" points="101.2,188.3 123.5,201.2 123.5,175.5 	"/>
</g>
<rect x="128.6" y="167.8" class="st3" width="92.2" height="9.9"/>
<rect x="128.6" y="199.2" class="st3" width="92.2" height="9.9"/>
<rect x="171.9" y="46.9" class="st2" width="50.8" height="41.5"/>
<g>
	<g>
		<circle class="st4" cx="212" cy="58.1" r="6.2"/>
		<path class="st4" d="M178.1,83.4c-1.1,0,28.9,0,30.1,0s2-1.6,1.3-3.1s-6.9-14.2-7.2-15c-0.3-0.8-2.1-2-3.1-0.9
			c-0.9,1-2.3,2.1-2.3,2.1s-5.3-9-5.6-9.5c-0.3-0.6-1.4-0.9-2.1-0.9s-1.5,0.4-1.9,1.1s-10.2,22-10.8,23.2s-0.3,2.2,0,2.4
			C176.9,83,178.1,83.4,178.1,83.4z"/>
	</g>
</g>
</svg>
