<svg width="24" height="24" xmlns="http://www.w3.org/2000/svg"><path fill-rule="evenodd" clip-rule="evenodd" d="M2.15 7.88A3 3 0 013 2a3 3 0 11-.85 5.88zm.25-4.01V3.2h1.2v.67H2.4zm0 2.93V4.4h1.2v2.4H2.4zM11.15 7.88A3 3 0 0112 2a3 3 0 11-.85 5.88zm.25-4.01V3.2h1.2v.67h-1.2zm0 2.93V4.4h1.2v2.4h-1.2zM20.15 7.88A3 3 0 0121 2a3 3 0 11-.85 5.88zm.25-4.01V3.2h1.2v.67h-1.2zm0 2.93V4.4h1.2v2.4h-1.2z"/><path d="M24 10v1h-6v-1h6zM24 12v1h-6v-1h6zM24 14v1h-6v-1h6zM15 11v-1H9v1h6zM15 13v-1H9v1h6zM15 15v-1h-2.77c.2.3.3.65.27 1H15zM6 10v1H0v-1h6zM3.37 13l.14-.41c.08-.23.2-.43.37-.59H0v1h3.37zM10.89 14.78H7.62a.11.11 0 00-.1.08l-.25.72c-.02.08.03.16.1.16h1.27c.1 0 .15.12.08.19L6.7 18.1l1.05 3.4c.02.07-.03.14-.1.14H6.63a.1.1 0 01-.1-.08L6 19.83c-.03-.1-.17-.1-.2 0l-.43 1.22a.1.1 0 000 .06l.39 1.49c.01.04.06.08.1.08h3.29c.07 0 .12-.08.1-.14l-1.33-4.28c-.01-.04 0-.09.03-.12l3.02-3.17c.07-.07.01-.2-.08-.2z"/><path d="M7.02 13H5.03a.11.11 0 00-.1.08l-.26.73c-.03.07.03.15.1.15h.84c.08 0 .13.07.1.15l-2.37 6.72a.1.1 0 01-.2 0l-1.7-4.85a.11.11 0 01.1-.15h.86c.04 0 .09.03.1.07l.62 1.75c.03.1.17.1.2 0l.96-2.72a.11.11 0 00-.1-.15H.1c-.08 0-.13.07-.1.15l3.12 9c.04.1.17.1.2 0l3.8-10.78c.02-.07-.03-.15-.1-.15z" fill="#D8141C"/></svg>