<svg width="24" height="24" xmlns="http://www.w3.org/2000/svg"><path fill-rule="evenodd" clip-rule="evenodd" d="M18 1.2H8.71c-.99 0-1.8.8-1.8 1.8v.27c0 .96-.62 1.8-1.53 2.1l-.93.3 1.15.48c.8.34 1.31 1.12 1.31 1.98 0 .92.75 1.67 1.67 1.67H18c1 0 1.8-.8 1.8-1.8V3c0-1-.8-1.8-1.8-1.8zM5.13 7.25c.35.15.58.5.58.88A2.87 2.87 0 008.58 11H18a3 3 0 003-3V3a3 3 0 00-3-3H8.71a3 3 0 00-3 3v.27a1 1 0 01-.7.95L1 5.5l4.13 1.75z"/><path fill-rule="evenodd" clip-rule="evenodd" d="M9.89 6.1H9V4.9h.89v1.2zm2.67 0h-1.78V4.9h1.78v1.2zm2.66 0h-1.78V4.9h1.78v1.2zm1.78 0h-.89V4.9H17v1.2zM21.21 16.7c0 .3.16.58.41.75L24 19l-2.23 1.09a1 1 0 00-.56.9 3 3 0 01-3 3.01H14a3 3 0 01-3-3v-3.89l1.06-1.1c.43-.46.53-1.05.38-1.57.45-.28.99-.44 1.56-.44h4.52a2.7 2.7 0 012.7 2.7zm-3 6.1H14c-1 0-1.8-.8-1.8-1.8v-4c0-1 .8-1.8 1.8-1.8h4.52c.82 0 1.5.67 1.5 1.5 0 .7.35 1.37.95 1.75l.6.4-.32.16A2.2 2.2 0 0020 21c0 1-.8 1.81-1.8 1.81z"/><path d="M10.89 14.78H7.62a.11.11 0 00-.1.08l-.25.72c-.02.08.03.16.1.16h1.27c.1 0 .15.12.08.19L6.7 18.1l1.05 3.4c.02.07-.03.14-.1.14H6.63a.1.1 0 01-.1-.08L6 19.83c-.03-.1-.17-.1-.2 0l-.43 1.22a.1.1 0 000 .06l.39 1.49c.01.04.06.08.1.08h3.29c.07 0 .12-.08.1-.14l-1.33-4.28c-.01-.04 0-.09.03-.12l3.02-3.17c.07-.07.01-.2-.08-.2z"/><path d="M7.02 13H5.03a.11.11 0 00-.1.08l-.26.73c-.03.07.03.15.1.15h.84c.08 0 .13.07.1.15l-2.37 6.72a.1.1 0 01-.2 0l-1.7-4.85a.11.11 0 01.1-.15h.86c.04 0 .09.03.1.07l.62 1.75c.03.1.17.1.2 0l.96-2.72a.11.11 0 00-.1-.15H.1c-.08 0-.13.07-.1.15l3.12 9c.04.1.17.1.2 0l3.8-10.78c.02-.07-.03-.15-.1-.15z" fill="#D8141C"/></svg>