<svg width="24" height="24" xmlns="http://www.w3.org/2000/svg"><path fill-rule="evenodd" clip-rule="evenodd" d="M22 4.5H2a.5.5 0 00-.5.5v8.28H0V5c0-1.1.9-2 2-2h20a2 2 0 012 2v13a2 2 0 01-2 2H10.04l-.44-1.41.08-.09H22a.5.5 0 00.5-.5V5a.5.5 0 00-.5-.5zM8.1 11.9H12v1.2H8.62a1.7 1.7 0 00-.53-1.2zm-4.12 0c-.2.18-.37.42-.47.69l-.18.51H3v-1.2h.98zM12 10.6H3V9.4h9v1.2zM3 8h2V6H3v2zm6 0H7V6h2v2zm2 0h2V6h-2v2zm6.5 4a2 2 0 100-4 2 2 0 000 4zm3.5 3.4c0 .33-.31.6-.7.6h-5.6c-.39 0-.7-.27-.7-.6v-.6c0-1 .94-1.8 2.1-1.8.14 0 .26.04.4.09.22.07.5.16 1 .16s.79-.1 1-.16c.15-.05.27-.09.4-.09 1.16 0 2.1.8 2.1 1.8v.6z"/><path d="M10.89 14.78H7.62a.11.11 0 00-.1.08l-.25.72c-.02.08.03.16.1.16h1.27c.1 0 .15.12.08.19L6.7 18.1l1.05 3.4c.02.07-.03.14-.1.14H6.63a.1.1 0 01-.1-.08L6 19.83c-.03-.1-.17-.1-.2 0l-.43 1.22a.1.1 0 000 .06l.39 1.49c.01.04.06.08.1.08h3.29c.07 0 .12-.08.1-.14l-1.33-4.28c-.01-.04 0-.09.03-.12l3.02-3.17c.07-.07.01-.2-.08-.2z"/><path d="M7.02 13H5.03a.11.11 0 00-.1.08l-.26.73c-.03.07.03.15.1.15h.84c.08 0 .13.07.1.15l-2.37 6.72a.1.1 0 01-.2 0l-1.7-4.85a.11.11 0 01.1-.15h.86c.04 0 .09.03.1.07l.62 1.75c.03.1.17.1.2 0l.96-2.72a.11.11 0 00-.1-.15H.1c-.08 0-.13.07-.1.15l3.12 9c.04.1.17.1.2 0l3.8-10.78c.02-.07-.03-.15-.1-.15z" fill="#D8141C"/></svg>