<?xml version="1.0" encoding="utf-8"?>
<!-- Generator: Adobe Illustrator 24.2.1, SVG Export Plug-In . SVG Version: 6.00 Build 0)  -->
<svg version="1.1" id="レイヤー_1" xmlns="http://www.w3.org/2000/svg" xmlns:xlink="http://www.w3.org/1999/xlink" x="0px"
	 y="0px" viewBox="0 0 434.8 144.9" style="enable-background:new 0 0 434.8 144.9;" xml:space="preserve">
<style type="text/css">
	.st0{fill:#231815;}
	.st1{fill:#D70C18;}
</style>
<g>
	<g>
		<path class="st0" d="M184.5,99.9c1.6-0.3,4.6-0.6,7.4-0.6c3.7,0,6.1,0.5,8,1.8c1.7,1.1,2.9,2.8,2.9,5.2c0,2.6-1.6,4.9-4.6,6v0.1
			c2.9,0.7,5.6,3.1,5.6,6.9c0,2.5-1.1,4.4-2.7,5.7c-2,1.7-5.2,2.6-10.3,2.6c-2.8,0-4.9-0.2-6.2-0.4V99.9z M189.5,110.9h2.6
			c3.5,0,5.5-1.7,5.5-4c0-2.6-2-3.8-5.2-3.8c-1.5,0-2.4,0.1-2.9,0.2V110.9z M189.5,123.7c0.7,0.1,1.5,0.1,2.7,0.1
			c3.2,0,6.2-1.2,6.2-4.7c0-3.2-2.8-4.6-6.3-4.6h-2.5V123.7z"/>
		<path class="st0" d="M209.1,98.1h5.1v29.3h-5.1V98.1z"/>
		<path class="st0" d="M239.8,117.1c0,7.4-5.2,10.7-10.3,10.7c-5.7,0-10-3.9-10-10.3c0-6.6,4.3-10.6,10.4-10.6
			C235.8,106.8,239.8,111,239.8,117.1z M224.7,117.3c0,3.9,1.9,6.8,5,6.8c2.9,0,4.9-2.8,4.9-6.8c0-3.2-1.4-6.8-4.9-6.8
			C226.1,110.5,224.7,114,224.7,117.3z"/>
		<path class="st0" d="M259.8,126.8c-1.1,0.5-3.1,1-5.7,1c-6.3,0-10.4-4-10.4-10.3c0-6,4.1-10.7,11.2-10.7c1.9,0,3.7,0.4,4.9,0.9
			l-0.9,3.8c-0.8-0.4-2-0.8-3.8-0.8c-3.9,0-6.2,2.8-6.1,6.5c0,4.1,2.7,6.5,6.2,6.5c1.7,0,3-0.4,4-0.8L259.8,126.8z"/>
		<path class="st0" d="M270.5,116.1L270.5,116.1c0.6-0.8,1.1-1.6,1.7-2.4l4.9-6.4h6.1l-7.4,8.2l8.5,11.9H278l-5.8-8.9l-1.7,2v6.8
			h-5.1V98.1h5.1V116.1z"/>
		<path class="st0" d="M298.8,99.6h5.1v23.5h11.4v4.3h-16.5V99.6z"/>
		<path class="st0" d="M326.2,101.7c0,1.5-1.1,2.7-2.9,2.7c-1.7,0-2.8-1.2-2.8-2.7c0-1.5,1.1-2.7,2.8-2.7
			C325.1,98.9,326.2,100.1,326.2,101.7z M320.8,127.4v-20.1h5.1v20.1H320.8z"/>
		<path class="st0" d="M333.1,127.4c0.1-1.4,0.2-3.6,0.2-5.6V98.1h5.1v12h0.1c1.2-2,3.4-3.2,6.4-3.2c4.9,0,8.4,4.1,8.4,10.2
			c0,7.2-4.6,10.8-9.1,10.8c-2.6,0-4.9-1-6.3-3.5h-0.1l-0.2,3H333.1z M338.3,119.1c0,0.4,0,0.8,0.1,1.2c0.5,2.1,2.3,3.6,4.5,3.6
			c3.2,0,5.1-2.5,5.1-6.6c0-3.5-1.7-6.4-5.1-6.4c-2.1,0-4,1.5-4.5,3.7c-0.1,0.4-0.2,0.8-0.2,1.3V119.1z"/>
		<path class="st0" d="M359.2,113.7c0-2.7-0.1-4.7-0.2-6.5h4.4l0.2,3.8h0.1c1-2.8,3.3-4.3,5.5-4.3c0.5,0,0.8,0,1.2,0.1v4.8
			c-0.4-0.1-0.9-0.1-1.5-0.1c-2.4,0-4.1,1.5-4.6,3.8c-0.1,0.4-0.1,1-0.1,1.5v10.4h-5.1V113.7z"/>
		<path class="st0" d="M387.1,127.4l-0.3-2.2h-0.1c-1.2,1.6-3.3,2.7-5.9,2.7c-4.1,0-6.3-2.9-6.3-6c0-5.1,4.5-7.6,11.9-7.6v-0.3
			c0-1.3-0.5-3.5-4.1-3.5c-2,0-4,0.6-5.4,1.5l-1-3.3c1.5-0.9,4.1-1.8,7.3-1.8c6.4,0,8.3,4.1,8.3,8.5v7.2c0,1.8,0.1,3.6,0.3,4.8
			H387.1z M386.4,117.5c-3.6,0-7,0.7-7,3.8c0,2,1.3,2.9,2.9,2.9c2,0,3.5-1.3,4-2.8c0.1-0.4,0.1-0.8,0.1-1.1V117.5z"/>
		<path class="st0" d="M398.6,113.7c0-2.7-0.1-4.7-0.2-6.5h4.4l0.2,3.8h0.1c1-2.8,3.3-4.3,5.5-4.3c0.5,0,0.8,0,1.2,0.1v4.8
			c-0.4-0.1-0.9-0.1-1.5-0.1c-2.4,0-4.1,1.5-4.6,3.8c-0.1,0.4-0.1,1-0.1,1.5v10.4h-5.1V113.7z"/>
		<path class="st0" d="M418.3,107.3l3.6,10.8c0.4,1.2,0.8,2.8,1.1,3.9h0.1c0.3-1.1,0.7-2.6,1.1-3.9l3.1-10.7h5.4l-5,13.7
			c-2.8,7.5-4.6,10.8-7,12.9c-2,1.7-4.1,2.4-5.3,2.6l-1.1-4.3c0.9-0.2,1.9-0.7,2.9-1.4c1-0.6,2.1-1.8,2.8-3.2
			c0.2-0.3,0.3-0.6,0.3-0.9c0-0.2-0.1-0.5-0.3-1l-7.4-18.4H418.3z"/>
	</g>
</g>
<g>
	<g>
		<path class="st0" d="M183.8,23.9c3.5-0.7,9.9-1.3,16.1-1.3c8.1,0,13.2,1.1,17.3,3.8c3.7,2.3,6.2,6.2,6.2,11.4
			c0,5.6-3.5,10.6-10.1,13v0.2c6.4,1.6,12.3,6.7,12.3,15c0,5.4-2.3,9.6-5.8,12.5c-4.3,3.7-11.4,5.6-22.5,5.6
			c-6.1,0-10.7-0.4-13.6-0.8V23.9z M194.7,47.8h5.7c7.7,0,11.9-3.6,11.9-8.7c0-5.7-4.3-8.3-11.3-8.3c-3.3,0-5.1,0.2-6.3,0.5V47.8z
			 M194.7,75.6c1.4,0.3,3.3,0.3,5.9,0.3c7.1,0,13.4-2.7,13.4-10.1c0-7-6.2-9.9-13.8-9.9h-5.5V75.6z"/>
		<path class="st0" d="M235.6,19.9h11.1v63.8h-11.1V19.9z"/>
		<path class="st0" d="M300.6,61.3c0,16.1-11.3,23.3-22.5,23.3c-12.3,0-21.9-8.5-21.9-22.5c0-14.3,9.4-23.2,22.6-23.2
			C291.9,38.9,300.6,48.1,300.6,61.3z M267.7,61.8c0,8.4,4.2,14.8,10.9,14.8c6.3,0,10.7-6.1,10.7-14.9c0-6.9-3-14.7-10.7-14.7
			C270.8,47,267.7,54.5,267.7,61.8z"/>
		<path class="st0" d="M342.3,82.3c-2.3,1.1-6.9,2.3-12.3,2.3c-13.7,0-22.5-8.8-22.5-22.4c0-13.1,8.9-23.3,24.3-23.3
			c4.1,0,8.2,0.9,10.7,2l-2,8.3c-1.8-0.9-4.4-1.7-8.4-1.7c-8.4,0-13.4,6.2-13.4,14.2c0,9,5.9,14.1,13.4,14.1c3.8,0,6.5-0.8,8.7-1.7
			L342.3,82.3z"/>
		<path class="st0" d="M363.8,59.1h0.2c1-1.7,2.3-3.6,3.4-5.1l10.7-14h13.3l-16.2,17.8l18.5,25.9h-13.6l-12.6-19.3l-3.7,4.4v14.9
			h-11.1V19.9h11.1V59.1z"/>
		<path class="st0" d="M400.2,73.5c2.4,1.5,7.2,3.2,11.2,3.2c4.9,0,7-2,7-4.9c0-3-1.8-4.5-7.2-6.4c-8.6-2.9-12.1-7.6-12.1-12.8
			c0-7.7,6.4-13.7,16.6-13.7c4.8,0,9,1.2,11.6,2.6l-2.2,7.8c-1.8-1-5.4-2.5-9.2-2.5c-3.9,0-6.1,1.9-6.1,4.6c0,2.8,2.1,4.1,7.6,6.1
			c8,2.8,11.6,6.9,11.7,13.3c0,8-6.2,13.7-17.8,13.7c-5.3,0-10.1-1.3-13.3-3.1L400.2,73.5z"/>
	</g>
</g>
<g>
	<path d="M148.4,23.4l-44.5,0.1c-0.6,0-1.2,0.4-1.4,1L99.1,34c-0.3,1,0.4,2,1.4,2l17.3,0c1.3,0,2,1.6,1.1,2.5L91.3,67.2l0.1,0
		l14.2,44.7c0.3,1-0.4,1.9-1.4,1.9l-13.9,0c-0.7,0-1.2-0.4-1.4-1l-7.1-22.9c-0.4-1.4-2.3-1.4-2.8-0.1l-5.8,16.1
		c-0.1,0.3-0.1,0.6,0,0.9l5.3,19.5c0.2,0.6,0.8,1.1,1.4,1.1h44.8c1,0,1.7-1,1.4-1.9L108,69.2c-0.2-0.5,0-1.1,0.4-1.5l41.1-41.8
		C150.4,25,149.7,23.4,148.4,23.4z"/>
	<g>
		<polygon class="st1" points="43.9,65.1 43.9,65.1 43.9,65.1 		"/>
		<path class="st1" d="M95.7,0L68.6,0.1c-0.6,0-1.2,0.4-1.4,1l-3.5,9.5c-0.4,1,0.4,2,1.4,2l11.4,0c1,0,1.7,1,1.4,2L45.6,103
			c-0.5,1.3-2.3,1.3-2.8,0L19.6,39.2c-0.4-1,0.4-2,1.4-2l11.7,0c0.6,0,1.2,0.4,1.4,1l8.4,23c0.5,1.3,2.3,1.3,2.8,0l13-35.8
			c0.4-1-0.4-2-1.4-2l-55.4,0c-1,0-1.7,1-1.4,2l42.6,118.4c0.5,1.3,2.3,1.3,2.8,0L97.1,2C97.4,1,96.7,0,95.7,0z"/>
	</g>
</g>
</svg>
