<svg xmlns="http://www.w3.org/2000/svg" viewBox="0 0 23.91 17.64"><defs><style>.cls-1{fill-rule:evenodd;}.cls-2{fill:#d8141c;}</style></defs>><path class="cls-1" d="M1.15,6.21a3.67,3.67,0,0,0,1.57,1,3.57,3.57,0,0,0,1,.15H4l.33-.06a.37.37,0,0,1,0-.11l.32-.75a.11.11,0,0,1,.11-.11H6.29A3.65,3.65,0,1,0,.1,3.6v0a3.66,3.66,0,0,0,1,2.56ZM3,1.46H4.48v.81H3ZM3,2.92H4.48V5.85H3Z"/><path class="cls-1" d="M11,7.16a3.65,3.65,0,0,1-1.58-1h0A3.63,3.63,0,0,1,8.35,3.65v0a3.66,3.66,0,1,1,3.93,3.7H12A3.47,3.47,0,0,1,11,7.16Zm.3-4.89V1.46h1.46v.81Zm0,3.58V2.92h1.46V5.85Z"/><path class="cls-1" d="M19.23,7.16a3.65,3.65,0,0,1-1.58-1h0a3.62,3.62,0,0,1-1-2.56v0a3.65,3.65,0,1,1,3.93,3.7h-.28A3.52,3.52,0,0,1,19.23,7.16Zm.3-4.89V1.46H21v.81Zm0,3.58V2.92H21V5.85Z"/><path d="M10.9,8.47H7.6a.09.09,0,0,0-.1.1h0l-.2.7c0,.1,0,.2.1.2H8.7c.1,0,.1.1.1.2l-2,2.2h0l1,3.4c0,.1,0,.1-.1.1h-1c-.1,0-.1,0-.1-.1L6,13.47c0-.1-.2-.1-.2,0l-.4,1.2v.1l.4,1.5.1.1H9.2a.1.1,0,0,0,.1-.1h0L8,12v-.1l3-3.2C11,8.57,11,8.47,10.9,8.47Z"/><path class="cls-2" d="M7,6.67H5a.09.09,0,0,0-.1.1h0l-.3.7c0,.1,0,.2.1.2h.8c.1,0,.1.1.1.2l-2.4,6.7c0,.1-.2.1-.2,0L1.4,9.67c0-.1,0-.2.1-.2h.9a.09.09,0,0,1,.1.1h0l.6,1.7c0,.1.2.1.2,0l1-2.7c0-.1,0-.2-.1-.2H.1a.3.3,0,0,0-.1.2l3.1,9c0,.1.2.1.2,0L7.1,6.77a.09.09,0,0,0-.1-.1Z"/></svg>